note_on channel=0 note=60 velocity=100 time=1
note_on channel=0 note=48 velocity=100 time=0
note_on channel=0 note=48 velocity=0 time=27
note_on channel=0 note=60 velocity=0 time=0
note_on channel=0 note=60 velocity=100 time=0
note_on channel=0 note=72 velocity=100 time=0
note_on channel=0 note=72 velocity=0 time=30
note_on channel=0 note=60 velocity=0 time=0
note_on channel=0 note=45 velocity=100 time=0
note_on channel=0 note=57 velocity=100 time=0
note_on channel=0 note=57 velocity=0 time=30
note_on channel=0 note=45 velocity=0 time=0
note_on channel=0 note=69 velocity=100 time=0
note_on channel=0 note=57 velocity=100 time=0
note_on channel=0 note=57 velocity=0 time=30
note_on channel=0 note=69 velocity=0 time=0
note_on channel=0 note=46 velocity=100 time=0
note_on channel=0 note=58 velocity=100 time=0
note_on channel=0 note=58 velocity=0 time=30
note_on channel=0 note=46 velocity=0 time=0
note_on channel=0 note=58 velocity=100 time=0
note_on channel=0 note=70 velocity=100 time=0
note_on channel=0 note=70 velocity=0 time=30
note_on channel=0 note=58 velocity=0 time=0
note_on channel=0 note=60 velocity=100 time=2
note_on channel=0 note=48 velocity=100 time=0
note_on channel=0 note=48 velocity=0 time=30
note_on channel=0 note=60 velocity=0 time=0
note_on channel=0 note=60 velocity=100 time=0
note_on channel=0 note=72 velocity=100 time=0
note_on channel=0 note=72 velocity=0 time=30
note_on channel=0 note=60 velocity=0 time=0
note_on channel=0 note=45 velocity=100 time=0
note_on channel=0 note=57 velocity=100 time=0
note_on channel=0 note=57 velocity=0 time=30
note_on channel=0 note=45 velocity=0 time=0
note_on channel=0 note=69 velocity=100 time=0
note_on channel=0 note=57 velocity=100 time=0
note_on channel=0 note=57 velocity=0 time=30
note_on channel=0 note=69 velocity=0 time=0
note_on channel=0 note=46 velocity=100 time=0
note_on channel=0 note=58 velocity=100 time=0
note_on channel=0 note=58 velocity=0 time=30
note_on channel=0 note=46 velocity=0 time=0
note_on channel=0 note=58 velocity=100 time=0
note_on channel=0 note=70 velocity=100 time=0
note_on channel=0 note=70 velocity=0 time=30
note_on channel=0 note=58 velocity=0 time=0
note_on channel=0 note=41 velocity=100 time=2
note_on channel=0 note=53 velocity=100 time=0
note_on channel=0 note=53 velocity=0 time=30
note_on channel=0 note=41 velocity=0 time=0
note_on channel=0 note=53 velocity=100 time=0
note_on channel=0 note=65 velocity=100 time=0
note_on channel=0 note=65 velocity=0 time=30
note_on channel=0 note=53 velocity=0 time=0
note_on channel=0 note=50 velocity=100 time=0
note_on channel=0 note=38 velocity=100 time=0
note_on channel=0 note=38 velocity=0 time=30
note_on channel=0 note=50 velocity=0 time=0
note_on channel=0 note=62 velocity=100 time=0
note_on channel=0 note=50 velocity=100 time=0
note_on channel=0 note=50 velocity=0 time=30
note_on channel=0 note=62 velocity=0 time=0
note_on channel=0 note=51 velocity=100 time=0
note_on channel=0 note=39 velocity=100 time=0
note_on channel=0 note=39 velocity=0 time=30
note_on channel=0 note=51 velocity=0 time=0
note_on channel=0 note=51 velocity=100 time=0
note_on channel=0 note=63 velocity=100 time=0
note_on channel=0 note=63 velocity=0 time=30
note_on channel=0 note=51 velocity=0 time=0
note_on channel=0 note=41 velocity=100 time=2
note_on channel=0 note=53 velocity=100 time=0
note_on channel=0 note=53 velocity=0 time=30
note_on channel=0 note=41 velocity=0 time=0
note_on channel=0 note=53 velocity=100 time=0
note_on channel=0 note=65 velocity=100 time=0
note_on channel=0 note=65 velocity=0 time=30
note_on channel=0 note=53 velocity=0 time=0
note_on channel=0 note=38 velocity=100 time=0
note_on channel=0 note=50 velocity=100 time=0
note_on channel=0 note=50 velocity=0 time=30
note_on channel=0 note=38 velocity=0 time=0
note_on channel=0 note=62 velocity=100 time=0
note_on channel=0 note=50 velocity=100 time=0
note_on channel=0 note=50 velocity=0 time=30
note_on channel=0 note=62 velocity=0 time=0
note_on channel=0 note=51 velocity=100 time=0
note_on channel=0 note=39 velocity=100 time=0
note_on channel=0 note=39 velocity=0 time=30
note_on channel=0 note=51 velocity=0 time=0
note_on channel=0 note=63 velocity=100 time=0
note_on channel=0 note=51 velocity=100 time=0
note_on channel=0 note=51 velocity=0 time=30
note_on channel=0 note=63 velocity=0 time=0
note_on channel=0 note=51 velocity=100 time=54
note_on channel=0 note=63 velocity=100 time=0
note_on channel=0 note=63 velocity=0 time=20
note_on channel=0 note=51 velocity=0 time=0
note_on channel=0 note=50 velocity=100 time=0
note_on channel=0 note=62 velocity=100 time=0
note_on channel=0 note=62 velocity=0 time=20
note_on channel=0 note=50 velocity=0 time=0
note_on channel=0 note=49 velocity=100 time=0
note_on channel=0 note=61 velocity=100 time=0
note_on channel=0 note=61 velocity=0 time=20
note_on channel=0 note=49 velocity=0 time=0
note_on channel=0 note=60 velocity=100 time=0
note_on channel=0 note=48 velocity=100 time=0
note_on channel=0 note=48 velocity=0 time=36
note_on channel=0 note=60 velocity=0 time=0
note_on channel=0 note=63 velocity=100 time=24
note_on channel=0 note=51 velocity=100 time=0
note_on channel=0 note=51 velocity=0 time=36
note_on channel=0 note=63 velocity=0 time=0
note_on channel=0 note=62 velocity=100 time=24
note_on channel=0 note=50 velocity=100 time=0
note_on channel=0 note=50 velocity=0 time=36
note_on channel=0 note=62 velocity=0 time=0
note_on channel=0 note=44 velocity=100 time=24
note_on channel=0 note=56 velocity=100 time=0
note_on channel=0 note=56 velocity=0 time=36
note_on channel=0 note=44 velocity=0 time=0
note_on channel=0 note=43 velocity=100 time=24
note_on channel=0 note=55 velocity=100 time=0
note_on channel=0 note=55 velocity=0 time=36
note_on channel=0 note=43 velocity=0 time=0
note_on channel=0 note=49 velocity=100 time=24
note_on channel=0 note=61 velocity=100 time=0
note_on channel=0 note=61 velocity=0 time=36
note_on channel=0 note=49 velocity=0 time=0
note_on channel=0 note=60 velocity=100 time=24
note_on channel=0 note=48 velocity=100 time=0
note_on channel=0 note=48 velocity=0 time=20
note_on channel=0 note=60 velocity=0 time=0
note_on channel=0 note=66 velocity=100 time=0
note_on channel=0 note=54 velocity=100 time=0
note_on channel=0 note=54 velocity=0 time=20
note_on channel=0 note=66 velocity=0 time=0
note_on channel=0 note=65 velocity=100 time=0
note_on channel=0 note=53 velocity=100 time=0
note_on channel=0 note=53 velocity=0 time=20
note_on channel=0 note=65 velocity=0 time=0
note_on channel=0 note=52 velocity=100 time=0
note_on channel=0 note=64 velocity=100 time=0
note_on channel=0 note=64 velocity=0 time=20
note_on channel=0 note=52 velocity=0 time=0
note_on channel=0 note=58 velocity=100 time=0
note_on channel=0 note=70 velocity=100 time=0
note_on channel=0 note=70 velocity=0 time=20
note_on channel=0 note=58 velocity=0 time=0
note_on channel=0 note=57 velocity=100 time=0
note_on channel=0 note=69 velocity=100 time=0
note_on channel=0 note=69 velocity=0 time=20
note_on channel=0 note=57 velocity=0 time=0
note_on channel=0 note=68 velocity=100 time=0
note_on channel=0 note=56 velocity=100 time=0
note_on channel=0 note=56 velocity=0 time=40
note_on channel=0 note=68 velocity=0 time=0
note_on channel=0 note=60 velocity=100 time=0
note_on channel=0 note=48 velocity=100 time=0
note_on channel=0 note=48 velocity=0 time=40
note_on channel=0 note=60 velocity=0 time=0
note_on channel=0 note=59 velocity=100 time=0
note_on channel=0 note=47 velocity=100 time=0
note_on channel=0 note=47 velocity=0 time=40
note_on channel=0 note=59 velocity=0 time=0
note_on channel=0 note=46 velocity=100 time=0
note_on channel=0 note=58 velocity=100 time=0
note_on channel=0 note=58 velocity=0 time=40
note_on channel=0 note=46 velocity=0 time=0
note_on channel=0 note=45 velocity=100 time=0
note_on channel=0 note=57 velocity=100 time=0
note_on channel=0 note=57 velocity=0 time=40
note_on channel=0 note=45 velocity=0 time=0
note_on channel=0 note=44 velocity=100 time=0
note_on channel=0 note=56 velocity=100 time=0
note_on channel=0 note=56 velocity=0 time=40
note_on channel=0 note=44 velocity=0 time=0
